#!OML:ASF H:\MichaelJackson\Top Level 1\Subject 1\Session 1\male.ASF
:FULLY-SPECIFIED
:DEGREES
356
root 5.63027 16.3347 -22.586 0.223884 21.3685 1.77329
lowerback 6.07755 -7.36196 -6.7015
upperback -0.384434 -10.2693 0.672465
thorax -2.48415 -5.02416 5.1065
lowerneck -4.87816 -2.59129 -0.957389
upperneck -2.34048 -3.39346 2.48607
head 0.148462 -1.67765 0.862195
rclavicle 2.00493e-014 1.00386e-014
rhumerus -59.6903 -1.02671 -83.6318
rradius 108.463
rwrist -0.855098
rhand 16.1206 -5.95839
rfingers 7.12502
rthumb 40.9054 -390.905
lclavicle 2.00493e-014 1.00386e-014
lhumerus -42.539 -39.6145 112.663
lradius 51.166
lwrist 11.6647
lhand 36.7039 26.1706
lfingers 7.12502
lthumb 59.6113 40.3526
rfemur -51.3306 -32.657 3.98835
rtibia 107.442
rfoot 26.2189 -4.4427
rtoes 24.3662
lfemur -22.8993 33.0101 -18.9591
ltibia 45.5478
lfoot -19.9048 10.0289
ltoes 7.45259
357
root 5.6061 16.3298 -22.5571 0.637386 21.7338 1.87028
lowerback 5.54088 -7.45726 -6.29148
upperback -0.56682 -10.3415 0.552596
thorax -2.45997 -5.06328 4.70771
lowerneck -4.94924 -2.69309 -0.926854
upperneck -2.12811 -3.53403 2.47762
head 0.226995 -1.74638 0.849652
rclavicle -6.66783e-014 -9.34288e-015
rhumerus -60.3289 0.246705 -84.0529
rradius 111.157
rwrist -2.4521
rhand 23.7043 -3.55297
rfingers 7.12502
rthumb 47.9689 -385.78
lclavicle -6.66783e-014 -9.34288e-015
lhumerus -43.7248 -39.8333 113.901
lradius 51.0679
lwrist 11.2754
lhand 36.1356 25.5792
lfingers 7.12502
lthumb 59.122 40.2493
rfemur -47.9724 -30.0811 1.82205
rtibia 104.28
rfoot 24.7912 -8.59847
rtoes 29.2319
lfemur -23.4397 33.1791 -19.1578
ltibia 45.6465
lfoot -19.7338 9.59742
ltoes 9.1063
358
root 5.58159 16.3243 -22.5284 1.02944 21.9599 2.06751
lowerback 5.03943 -7.50051 -5.95965
upperback -0.732968 -10.3555 0.389363
thorax -2.44033 -5.07299 4.30904
lowerneck -5.0259 -2.79411 -0.930529
upperneck -1.90027 -3.67215 2.50806
head 0.312916 -1.81326 0.854567
rclavicle -5.70807e-014 -1.07841e-014
rhumerus -60.9311 1.58833 -84.3097
rradius 113.723
rwrist -4.27252
rhand 28.3577 -2.58181
rfingers 7.12502
rthumb 52.2245 -382.553
lclavicle -5.70807e-014 -1.07841e-014
lhumerus -44.8509 -39.8861 115.007
lradius 50.9221
lwrist 11.0363
lhand 35.6729 25.1759
lfingers 7.12502
lthumb 58.7219 40.2314
rfemur -44.866 -27.4327 -0.0682217
rtibia 100.957
rfoot 22.8695 -12.76
rtoes 34.1254
lfemur -23.8675 33.2109 -19.3945
ltibia 45.7234
lfoot -19.568 9.20696
ltoes 10.9411
359
root 5.55686 16.3188 -22.4999 1.4005 22.0298 2.35376
lowerback 4.557 -7.49106 -5.68885
upperback -0.875512 -10.3068 0.182425
thorax -2.41055 -5.05189 3.8983
lowerneck -5.10649 -2.8906 -0.962422
upperneck -1.67658 -3.80287 2.56642
head 0.399684 -1.87601 0.872793
rclavicle -6.08817e-014 4.87022e-015
rhumerus -61.5025 2.97314 -84.3598
rradius 116.122
rwrist -6.04253
rhand 29.8089 -2.65332
rfingers 7.12502
rthumb 53.5351 -381.801
lclavicle -6.08817e-014 4.87022e-015
lhumerus -45.8795 -39.799 115.954
lradius 50.72
lwrist 10.9384
lhand 35.2757 24.8976
lfingers 7.12502
lthumb 58.3771 40.2758
rfemur -41.9881 -24.7642 -1.732
rtibia 97.4802
rfoot 20.5551 -16.6593
rtoes 38.9146
lfemur -24.1752 33.1495 -19.6527
ltibia 45.77
lfoot -19.3959 8.9273
ltoes 12.9193
360
root 5.53184 16.3144 -22.4712 1.74073 21.9438 2.70131
lowerback 4.08365 -7.43303 -5.44975
upperback -0.990582 -10.1974 -0.0653343
thorax -2.36387 -5.00167 3.46174
lowerneck -5.18492 -2.97988 -1.01432
upperneck -1.4663 -3.92292 2.64204
head 0.483062 -1.93321 0.899931
rclavicle 1.82805e-013 1.0635e-014
rhumerus -62.0365 4.36479 -84.1444
rradius 118.311
rwrist -7.53527
rhand 28.317 -3.29332
rfingers 7.12502
rthumb 52.1877 -383.287
lclavicle 1.82805e-013 1.0635e-014
lhumerus -46.7911 -39.5717 116.708
lradius 50.4863
lwrist 11.0107
lhand 35.0887 24.8793
lfingers 7.12502
lthumb 58.2144 40.4068
rfemur -39.3054 -22.1222 -3.19943
rtibia 93.8471
rfoot 18.0502 -20.0396
rtoes 43.208
lfemur -24.3503 33.0302 -19.8971
ltibia 45.7813
lfoot -19.2515 8.74108
ltoes 15.055
361
root 5.50594 16.311 -22.4418 2.0398 21.7151 3.08642
lowerback 3.61418 -7.33177 -5.2268
upperback -1.07387 -10.0324 -0.349283
thorax -2.29267 -4.92531 2.99532
lowerneck -5.26306 -3.05784 -1.07411
upperneck -1.27319 -4.02737 2.72376
head 0.56156 -1.98256 0.930653
rclavicle -1.08793e-013 9.14409e-015
rhumerus -62.4926 5.73077 -83.5961
rradius 120.236
rwrist -8.59066
rhand 24.6014 -4.0138
rfingers 7.12502
rthumb 48.7949 -385.847
lclavicle -1.08793e-013 9.14409e-015
lhumerus -47.595 -39.2138 117.254
lradius 50.2374
lwrist 11.1269
lhand 35.1199 24.9626
lfingers 7.12502
lthumb 58.2416 40.4652
rfemur -36.7764 -19.5486 -4.50377
rtibia 90.0612
rfoot 15.6148 -22.7436
rtoes 46.7261
lfemur -24.3903 32.8839 -20.0978
ltibia 45.7628
lfoot -19.1579 8.62764
ltoes 17.2676
362
root 5.4783 16.3082 -22.4114 2.28655 21.3627 3.47577
lowerback 3.15368 -7.19597 -5.00175
upperback -1.13214 -9.82277 -0.658838
thorax -2.20553 -4.82785 2.50211
lowerneck -5.33946 -3.12042 -1.12771
upperneck -1.08083 -4.11179 2.796
head 0.639158 -2.02198 0.957833
rclavicle -2.87664e-014 -1.98785e-016
rhumerus -62.8382 7.07883 -82.6695
rradius 121.842
rwrist -9.12148
rhand 19.5564 -4.68679
rfingers 7.12502
rthumb 44.1216 -388.524
lclavicle -2.87664e-014 -1.98785e-016
lhumerus -48.3034 -38.7142 117.584
lradius 49.9913
lwrist 11.2728
lhand 35.448 25.202
lfingers 7.12502
lthumb 58.5268 40.4412
rfemur -34.3699 -17.0739 -5.65634
rtibia 86.1305
rfoot 13.5549 -24.7183
rtoes 49.3054
lfemur -24.2993 32.7288 -20.2127
ltibia 45.7259
lfoot -19.1498 8.50043
ltoes 19.7052
363
root 5.44812 16.305 -22.3799 2.48627 20.912 3.85876
lowerback 2.70696 -7.03268 -4.77799
upperback -1.17649 -9.57836 -0.986622
thorax -2.11267 -4.71353 1.99327
lowerneck -5.41411 -3.1661 -1.16991
upperneck -0.871226 -4.17481 2.85675
head 0.721192 -2.0507 0.979919
rclavicle -6.6818e-016 1.17283e-014
rhumerus -63.0456 8.43442 -81.3422
rradius 123.082
rwrist -9.13721
rhand 13.8597 -5.30197
rfingers 7.12502
rthumb 38.7772 -390.885
lclavicle -6.6818e-016 1.17283e-014
lhumerus -48.9396 -38.0915 117.718
lradius 49.7489
lwrist 11.4273
lhand 35.9949 25.5731
lfingers 7.12502
lthumb 59.0005 40.3616
rfemur -32.0784 -14.7354 -6.68658
rtibia 82.0786
rfoot 12.1107 -25.9692
rtoes 50.9281
lfemur -24.1012 32.5517 -20.2287
ltibia 45.6818
lfoot -19.2125 8.26904
ltoes 22.2153
364
root 5.41414 16.3008 -22.3473 2.64507 20.3924 4.22039
lowerback 2.28345 -6.85122 -4.55848
upperback -1.22275 -9.31264 -1.32458
thorax -2.03206 -4.58822 1.48117
lowerneck -5.48411 -3.19642 -1.19521
upperneck -0.618848 -4.21947 2.90684
head 0.815099 -2.07009 0.996096
rclavicle -5.37992e-014 -1.19271e-014
rhumerus -63.101 9.84664 -79.6307
rradius 123.928
rwrist -8.78596
rhand 7.97106 -5.97852
rfingers 7.12502
rthumb 33.1995 -392.936
lclavicle -5.37992e-014 -1.19271e-014
lhumerus -49.5274 -37.3535 117.672
lradius 49.5232
lwrist 11.6147
lhand 36.5931 25.9159
lfingers 7.12502
lthumb 59.5161 40.1944
rfemur -29.9057 -12.5685 -7.60406
rtibia 77.9413
rfoot 11.434 -26.5193
rtoes 51.5627
lfemur -23.8087 32.2971 -20.1151
ltibia 45.6372
lfoot -19.3008 7.90347
ltoes 24.5638
365
root 5.37584 16.2946 -22.3144 2.7786 19.827 4.5568
lowerback 1.88687 -6.65672 -4.34881
upperback -1.28277 -9.03307 -1.66632
thorax -1.97511 -4.45522 0.976305
lowerneck -5.565 -3.21648 -1.19794
upperneck -0.299323 -4.25339 2.9429
head 0.931194 -2.08368 1.00383
rclavicle 1.37084e-013 1.49089e-014
rhumerus -63.0083 11.3783 -77.5803
rradius 124.38
rwrist -8.27367
rhand 2.15764 -6.89997
rfingers 7.12502
rthumb 27.6553 -394.887
lclavicle 1.37084e-013 1.49089e-014
lhumerus -50.0805 -36.5296 117.464
lradius 49.3428
lwrist 11.9153
lhand 37.0864 26.2067
lfingers 7.12502
lthumb 59.9392 40.0506
rfemur -27.8784 -10.617 -8.42565
rtibia 73.778
rfoot 11.5896 -26.3994
rtoes 51.1823
lfemur -23.4344 31.8962 -19.8552
ltibia 45.5817
lfoot -19.3411 7.41592
ltoes 26.4957
